:SAMPLES-PER-SECOND 30
:FRAME-RANGE 1-1086
:FULLY-SPECIFIED
:DEGREES
408
root  -54.4886 38.9835 53.6666 -7.11481 -80.1941 23.2854
RightUpLeg  -30.9617 8.12922 -9.10173
RightLeg  19.4488 3.32417 1.09596
RightFoot  -3.05323 -0.160461 1.95818
RightToes  1.21801e-010 1.2921e-014 -6.02303e-014
Spine  -0.615801 -9.35608 -5.61288
Spine1  7.90161 -12.0282 9.46362
HEad  8.60227 22.7712 -1.69283
LeftShoulder1  1.67074 -13.4199 -2.01391
LeftArm  -17.0393 -40.6918 -19.1467
LeftForeArm  -15.1432 -8.75625 -9.2237
LeftHand  0.753442 -1.44514 -12.6682
RightShoulder  1.14782 0.663658 22.6329
RightArm  6.93203 6.14978 60.4314
RightForeArm  81.8005 78.8055 101.447
RightHand  1.99685 -18.5876 -17.6087
LeftUpLeg  -7.81994 2.44694 3.50552
LeftLeg  12.4924 1.05396 1.75414
LeftFoot  -10.8721 0.115441 -12.2986
LeftToes  3.79492e-011 -8.60219e-011 1.56273e-011
409
root  -54.6159 39.0306 53.5185 -6.04205 -79.2561 23.2264
RightUpLeg  -31.5713 7.22194 -9.13748
RightLeg  19.2533 3.29423 1.07185
RightFoot  -3.01281 -0.130882 1.51535
RightToes  1.21801e-010 1.2921e-014 -6.02303e-014
Spine  -0.167333 -9.60614 -6.1166
Spine1  7.83155 -12.2868 9.54913
HEad  7.87728 23.1962 -1.83587
LeftShoulder1  1.62339 -13.2452 -1.80956
LeftArm  -15.4054 -39.4554 -18.7109
LeftForeArm  -17.7967 -11.1177 -9.01805
LeftHand  0.794441 -1.60055 -13.0458
RightShoulder  1.07342 0.412116 22.5668
RightArm  7.1385 4.82911 59.7465
RightForeArm  91.5716 78.1887 111.679
RightHand  2.02781 -18.746 -17.6607
LeftUpLeg  -9.09654 4.30435 3.67581
LeftLeg  10.7444 5.35679 2.09075
LeftFoot  -10.2882 0.181313 -12.9995
LeftToes  3.79492e-011 -8.60219e-011 1.56273e-011
410
root  -54.6888 39.0562 53.3663 -4.36023 -78.1928 22.4579
RightUpLeg  -32.2071 6.57702 -9.10847
RightLeg  19.1353 2.76643 0.860775
RightFoot  -2.9581 -0.116204 1.31034
RightToes  1.21801e-010 1.2921e-014 -6.02303e-014
Spine  0.406696 -9.77911 -6.53091
Spine1  7.65861 -12.4661 9.66626
HEad  7.60516 23.4408 -1.92534
LeftShoulder1  1.55346 -12.8662 -1.581
LeftArm  -10.2051 -38.4805 -18.7373
LeftForeArm  -21.6208 -14.7775 -8.5765
LeftHand  0.813847 -1.72487 -13.1194
RightShoulder  1.01158 0.192775 22.5946
RightArm  7.11181 3.28138 59.0198
RightForeArm  99.1643 77.4273 119.347
RightHand  2.02668 -18.8307 -17.5444
LeftUpLeg  -10.6272 5.13006 3.95472
LeftLeg  9.20517 11.1112 2.65257
LeftFoot  -8.32671 0.391192 -12.9326
LeftToes  3.79492e-011 -8.60219e-011 1.56273e-011
411
root  -54.7035 39.0382 53.2237 -2.4422 -77.0523 21.3727
RightUpLeg  -33.0776 5.99228 -9.05282
RightLeg  19.4769 2.10611 0.619832
RightFoot  -3.03926 -0.105608 1.16301
RightToes  1.21801e-010 1.2921e-014 -6.02303e-014
Spine  1.05724 -9.75297 -6.86785
Spine1  7.46234 -12.5104 10.0194
HEad  7.64619 23.8032 -2.32496
LeftShoulder1  1.47004 -12.6368 -1.14429
LeftArm  -4.96345 -37.3154 -19.6022
LeftForeArm  -28.485 -18.0724 -7.75117
LeftHand  0.892117 -1.9115 -13.9976
RightShoulder  0.978876 0.0671176 22.6984
RightArm  6.63906 1.70967 58.216
RightForeArm  106.052 76.6505 125.287
RightHand  2.05121 -18.8303 -17.7438
LeftUpLeg  -12.4689 5.47111 4.29286
LeftLeg  8.35503 15.9246 3.25271
LeftFoot  -7.53889 0.471805 -12.8139
LeftToes  3.79492e-011 -8.60219e-011 1.56273e-011
412
root  -54.6808 38.994 53.0979 -0.0860596 -76.0833 19.6427
RightUpLeg  -33.8576 5.41193 -8.71765
RightLeg  19.8792 1.63468 0.4471
RightFoot  -3.17167 -0.0962376 1.02819
RightToes  1.21801e-010 1.2921e-014 -6.02303e-014
Spine  1.61085 -9.48953 -6.72563
Spine1  7.44284 -12.2853 10.1443
HEad  7.84115 24.3081 -2.84289
LeftShoulder1  1.42351 -12.3369 -1.00811
LeftArm  -0.534537 -36.7738 -20.8966
LeftForeArm  -33.7986 -20.9442 -7.00419
LeftHand  0.906604 -1.78506 -14.4874
RightShoulder  0.939943 -0.0897378 22.9026
RightArm  5.92095 0.34491 57.6359
RightForeArm  110.434 76.2335 128.192
RightHand  2.07567 -18.6367 -18.1944
LeftUpLeg  -14.2169 5.8584 4.87525
LeftLeg  7.88612 19.4006 3.69637
LeftFoot  -6.80881 0.562001 -13.1273
LeftToes  3.79492e-011 -8.60219e-011 1.56273e-011
413
root  -54.6349 38.9122 53.0068 2.21857 -75.3637 17.6393
RightUpLeg  -34.5841 5.31485 -8.33663
RightLeg  20.6491 0.947061 0.184606
RightFoot  -3.44663 -0.0976986 1.06137
RightToes  1.21801e-010 1.2921e-014 -6.02303e-014
Spine  2.27978 -9.15922 -6.16034
Spine1  7.41117 -11.9158 9.90661
HEad  8.31229 25.4309 -3.36166
LeftShoulder1  1.42067 -11.995 -1.2192
LeftArm  1.29164 -36.4463 -22.2303
LeftForeArm  -35.7992 -23.2567 -6.65791
LeftHand  0.860861 -1.5562 -14.2318
RightShoulder  0.931617 -0.163608 23.3461
RightArm  4.98221 -0.341282 56.9333
RightForeArm  111.692 76.4528 127.547
RightHand  1.96591 -18.1218 -17.9625
LeftUpLeg  -15.7568 6.37742 5.5175
LeftLeg  8.19767 22.1771 4.2078
LeftFoot  -5.61591 0.688931 -13.0609
LeftToes  3.79492e-011 -8.60219e-011 1.56273e-011
414
root  -54.5599 38.7854 52.9532 4.53015 -74.8803 15.3923
RightUpLeg  -35.3445 5.3438 -7.86394
RightLeg  21.7914 0.473576 -0.00362638
RightFoot  -3.92643 -0.0992372 1.10209
RightToes  1.21801e-010 1.2921e-014 -6.02303e-014
Spine  2.85084 -8.83993 -5.3306
Spine1  7.57835 -11.4894 9.39662
HEad  8.68847 27.2338 -4.12706
LeftShoulder1  1.4589 -11.6 -1.79122
LeftArm  0.685341 -36.2183 -23.5232
LeftForeArm  -35.7861 -25.1484 -6.9356
LeftHand  0.826553 -1.35387 -14.0954
RightShoulder  0.955353 -0.0966034 23.4813
RightArm  3.87402 -1.02109 57.1278
RightForeArm  111.142 77.0858 124.485
RightHand  1.86281 -17.5806 -17.8058
LeftUpLeg  -17.2093 7.23609 6.15945
LeftLeg  9.35836 24.2762 4.67171
LeftFoot  -3.72555 0.865795 -12.6333
LeftToes  3.79492e-011 -8.60219e-011 1.56273e-011
415
root  -54.4554 38.6325 52.93 6.41681 -74.6096 13.4427
RightUpLeg  -36.1567 5.21937 -7.34691
RightLeg  23.1636 0.325862 -0.0620357
RightFoot  -4.47645 -0.104331 1.21071
RightToes  1.21801e-010 1.2921e-014 -6.02303e-014
Spine  3.49157 -8.49159 -4.65461
Spine1  7.63912 -11.0474 8.96057
HEad  8.95319 29.1301 -4.98823
LeftShoulder1  1.48119 -11.0882 -2.36343
LeftArm  0.250241 -36.204 -24.977
LeftForeArm  -35.0293 -26.7777 -7.30488
LeftHand  0.78266 -1.2318 -13.6065
RightShoulder  0.981263 -0.0237521 23.6254
RightArm  2.83598 -1.16174 56.8749
RightForeArm  108.316 77.9028 119.237
RightHand  1.71596 -16.8274 -17.5279
LeftUpLeg  -18.2253 7.99807 6.65867
LeftLeg  10.2666 25.6664 4.97459
LeftFoot  -0.81515 1.22013 -13.1474
LeftToes  3.79492e-011 -8.60219e-011 1.56273e-011
416
root  -54.3628 38.4768 52.9177 7.95496 -74.4404 11.6671
RightUpLeg  -36.843 5.58175 -6.98266
RightLeg  24.6254 -0.210734 -0.323469
RightFoot  -5.00105 -0.100327 1.19735
RightToes  1.21801e-010 1.2921e-014 -6.02303e-014
Spine  4.07131 -8.23068 -4.33127
Spine1  7.61217 -10.6618 8.5445
HEad  9.27857 30.6554 -5.57488
LeftShoulder1  1.54577 -10.8368 -3.08928
LeftArm  -0.055814 -35.8578 -26.0076
LeftForeArm  -33.7157 -28.3976 -7.66594
LeftHand  0.75162 -1.27169 -12.9849
RightShoulder  1.02767 0.106844 23.8667
RightArm  2.16497 -1.07894 56.0611
RightForeArm  101.443 78.6372 111.806
RightHand  1.52837 -15.6536 -17.4461
LeftUpLeg  -18.8448 8.46636 7.10448
LeftLeg  11.7835 25.6969 5.68213
LeftFoot  -1.40574 1.30449 -14.8434
LeftToes  3.79492e-011 -8.60219e-011 1.56273e-011
417
root  -54.3011 38.3746 52.9332 8.93732 -74.1313 10.3669
RightUpLeg  -37.0803 5.83188 -6.7981
RightLeg  25.6042 -0.626143 -0.54708
RightFoot  -5.44165 -0.117635 1.56463
RightToes  1.21801e-010 1.2921e-014 -6.02303e-014
Spine  4.36891 -8.1236 -4.26667
Spine1  7.68994 -10.4434 8.12069
HEad  9.58319 31.207 -5.83314
LeftShoulder1  1.60916 -10.5713 -3.84409
LeftArm  0.0886341 -35.3642 -27.1864
LeftForeArm  -32.8415 -29.84 -8.00902
LeftHand  0.722285 -1.19259 -12.6363
RightShoulder  1.05277 0.157643 24.1715
RightArm  1.70147 -0.540824 54.9774
RightForeArm  90.515 79.2395 100.891
RightHand  1.35475 -14.449 -17.5595
LeftUpLeg  -18.9269 8.3848 7.49401
LeftLeg  12.3527 25.0092 6.15163
LeftFoot  -1.61538 1.42715 -16.5642
LeftToes  3.79492e-011 -8.60219e-011 1.56273e-011
418
root  -54.2821 38.3537 52.973 9.42792 -73.6194 9.59424
RightUpLeg  -36.8734 5.84683 -6.70905
RightLeg  25.9256 -1.07863 -0.791729
RightFoot  -5.62873 -0.121333 1.66461
RightToes  1.21801e-010 1.2921e-014 -6.02303e-014
Spine  4.28955 -8.18313 -4.40565
Spine1  7.87425 -10.4274 7.77874
HEad  9.82221 31.2291 -6.23722
LeftShoulder1  1.6426 -10.2366 -4.44835
LeftArm  -0.0724946 -34.4686 -28.7536
LeftForeArm  -30.9134 -31.3085 -8.33211
LeftHand  0.663909 -1.06557 -11.8565
RightShoulder  1.01342 0.0156918 24.2807
RightArm  1.0239 -0.387306 54.4412
RightForeArm  79.6983 79.4306 89.9801
RightHand  1.20837 -13.6205 -17.2935
LeftUpLeg  -18.7895 8.66345 7.72203
LeftLeg  12.3159 24.1567 5.80061
LeftFoot  -1.8178 1.40822 -16.676
LeftToes  3.79492e-011 -8.60219e-011 1.56273e-011
